<?xml version="1.0" encoding="UTF-8"?>
<svg width="19px" height="19px" viewBox="0 0 19 19" version="1.1" xmlns="http://www.w3.org/2000/svg" xmlns:xlink="http://www.w3.org/1999/xlink">
    <!-- Generator: Sketch 57.1 (83088) - https://sketch.com -->
    <title>1828926</title>
    <desc>Created with Sketch.</desc>
    <g id="Page-1" stroke="none" stroke-width="1" fill="none" fill-rule="evenodd">
        <g id="Desktop-(close)" transform="translate(-1095.000000, -603.000000)" fill="#7D7D7D" fill-rule="nonzero">
            <g id="1828926" transform="translate(1095.000000, 603.000000)">
                <path d="M9.5,19 C4.26148989,19 0,14.7385101 0,9.5 C0,4.26148989 4.26148989,0 9.5,0 C14.7385101,0 19,4.26148989 19,9.5 C19,14.7385101 14.7385101,19 9.5,19 Z M9.5,1.1875 C4.9162674,1.1875 1.1875,4.9162674 1.1875,9.5 C1.1875,14.0837326 4.9162674,17.8125 9.5,17.8125 C14.0837326,17.8125 17.8125,14.0837326 17.8125,9.5 C17.8125,4.9162674 14.0837326,1.1875 9.5,1.1875 Z" id="Shape"></path>
                <path d="M13.375,10 L4.625,10 C4.27999879,10 4,9.77600097 4,9.5 C4,9.22399903 4.27999879,9 4.625,9 L13.375,9 C13.7200012,9 14,9.22399903 14,9.5 C14,9.77600097 13.7200012,10 13.375,10 Z" id="Path"></path>
                <path d="M9.5,14 C9.22399903,14 9,13.7200012 9,13.375 L9,4.625 C9,4.27999879 9.22399903,4 9.5,4 C9.77600097,4 10,4.27999879 10,4.625 L10,13.375 C10,13.7200012 9.77600097,14 9.5,14 Z" id="Path"></path>
            </g>
        </g>
    </g>
</svg>