<?xml version="1.0" encoding="UTF-8"?>
<svg width="18px" height="24px" viewBox="0 0 18 24" version="1.1" xmlns="http://www.w3.org/2000/svg" xmlns:xlink="http://www.w3.org/1999/xlink">
    <!-- Generator: Sketch 57.1 (83088) - https://sketch.com -->
    <title>955979</title>
    <desc>Created with Sketch.</desc>
    <g id="Page-1" stroke="none" stroke-width="1" fill="none" fill-rule="evenodd">
        <g id="Desktop-(open)" transform="translate(-41.000000, -436.000000)" fill="#000000" fill-rule="nonzero">
            <g id="955979" transform="translate(41.000000, 436.000000)">
                <path d="M17.3547086,0.620711941 L17.3547086,0.620711941 C16.9600387,0.435706625 16.4950812,0.507640648 16.1722447,0.803581715 L14.6398342,2.18465876 L12.554952,0.286443528 C12.1360983,-0.0954811759 11.501965,-0.0954811759 11.0831113,0.286443528 L8.99994069,2.18286041 L6.91627318,0.286443528 C6.49730903,-0.0954811759 5.86312055,-0.0954811759 5.4441564,0.286443528 L3.35872204,2.18465876 L1.82487596,0.803637913 C1.37228646,0.394175967 0.679239809,0.435706625 0.276950301,0.896365365 C0.096842097,1.1026137 -0.00182539563,1.36950016 2.55781526e-05,1.64543458 L2.55781526e-05,22.3545654 C-0.00353703093,22.9717931 0.485162453,23.4751064 1.09157827,23.4787593 C1.36273443,23.4803891 1.62494592,23.3797938 1.82763666,23.1964183 L3.36004718,21.8153412 L5.4449294,23.7135565 C5.86378312,24.0954812 6.49791639,24.0954812 6.91677011,23.7135565 L8.99994069,21.8169148 L11.0834426,23.7133317 C11.5024067,24.0952002 12.1365952,24.0952002 12.5555593,23.7133317 L14.6409937,21.8151726 L16.1748398,23.1961935 C16.6273741,23.6057678 17.3204207,23.5644058 17.7227654,23.1038032 C17.9030393,22.8974987 18.0017068,22.6304436 17.9999161,22.3543406 L17.9999161,1.64543458 C18.0052957,1.20332133 17.7515872,0.800378403 17.3547086,0.620711941 Z M15.370316,20.9733198 C14.951407,20.59561 14.3208627,20.5972959 13.9039414,20.9773099 L11.8191144,22.8754689 L9.73588865,20.979052 C9.31697972,20.5971273 8.68279123,20.5971273 8.2638823,20.979052 L6.18043565,22.8754689 L4.09472522,20.9773099 C3.6794052,20.5973521 3.04996512,20.59561 2.63260218,20.9732636 L1.10433272,22.3539472 L1.10433272,19.3582886 L1.09881131,1.64571557 L2.62956541,3.02645542 C3.04847434,3.40416524 3.6790187,3.40247929 4.09593993,3.02246533 L6.18076693,1.1243063 L8.26399273,3.02072318 C8.68290166,3.40264788 9.31709014,3.40264788 9.73599908,3.02072318 L11.8194457,1.1243063 L13.9051562,3.02246533 C14.3204762,3.40242309 14.9499163,3.40416524 15.3672792,3.02651162 L16.8955487,1.64543458 L16.8955487,15.8811777 L16.9010701,22.3540596 L15.370316,20.9733198 Z" id="Shape"></path>
                <path d="M14.4274427,12 L3.57255733,12 C3.25633392,12 3,12.22385 3,12.5 C3,12.77615 3.25633392,13 3.57255733,13 L14.4274427,13 C14.7436661,13 15,12.77615 15,12.5 C15,12.22385 14.7436088,12 14.4274427,12 Z" id="Path"></path>
                <path d="M9.49826903,8 L4.50173097,8 C4.22462496,8 4,8.22385 4,8.5 C4,8.77615 4.22462496,9 4.50173097,9 L9.49826903,9 C9.77537504,9 10,8.77615 10,8.5 C10,8.22385 9.77532487,8 9.49826903,8 Z" id="Path"></path>
                <path d="M14.4274427,15 L3.57255733,15 C3.25633392,15 3,15.22385 3,15.5 C3,15.77615 3.25633392,16 3.57255733,16 L14.4274427,16 C14.7436661,16 15,15.77615 15,15.5 C15,15.22385 14.7436088,15 14.4274427,15 Z" id="Path"></path>
            </g>
        </g>
    </g>
</svg>