<?xml version="1.0" encoding="UTF-8"?>
<svg width="20px" height="20px" viewBox="0 0 20 20" version="1.1" xmlns="http://www.w3.org/2000/svg" xmlns:xlink="http://www.w3.org/1999/xlink">
    <!-- Generator: Sketch 57.1 (83088) - https://sketch.com -->
    <title>Group 10</title>
    <desc>Created with Sketch.</desc>
    <g id="Page-1" stroke="none" stroke-width="1" fill="none" fill-rule="evenodd">
        <g id="Desktop-(open)" transform="translate(-40.000000, -184.000000)" fill="#000000" fill-rule="nonzero">
            <g id="Group-10" transform="translate(40.000000, 184.000000)">
                <path d="M7.56808987,20 L1.43176029,20 C0.6422472,20 0,19.3131537 0,18.4686549 L0,14.5311849 C0,13.6868463 0.6422472,13 1.43176029,13 L7.56808987,13 C8.3577528,13 9,13.6868463 9,14.5311849 L9,18.4686549 C9,19.3131537 8.3577528,20 7.56808987,20 Z M1.43176029,14.31249 C1.31895131,14.31249 1.22726592,14.4105422 1.22726592,14.5311849 L1.22726592,18.4686549 C1.22726592,18.5894578 1.31895131,18.68751 1.43176029,18.68751 L7.56808987,18.68751 C7.68104869,18.68751 7.77273408,18.5894578 7.77273408,18.4686549 L7.77273408,14.5311849 C7.77273408,14.4105422 7.68104869,14.31249 7.56808987,14.31249 L1.43176029,14.31249 Z" id="Shape"></path>
                <path d="M7.56808987,11 L1.43176029,11 C0.6422472,11 0,10.3832381 0,9.62505396 L0,1.37508993 C0,0.616761933 0.6422472,0 1.43176029,0 L7.56808987,0 C8.3577528,0 9,0.616761933 9,1.37508993 L9,9.62505396 C9,10.3832381 8.3577528,11 7.56808987,11 Z M1.43176029,1.17856629 C1.31895131,1.17856629 1.22726592,1.26661348 1.22726592,1.37508993 L1.22726592,9.62505396 C1.22726592,9.73338652 1.31895131,9.82143371 1.43176029,9.82143371 L7.56808987,9.82143371 C7.68104869,9.82143371 7.77273408,9.73338652 7.77273408,9.62505396 L7.77273408,1.37508993 C7.77273408,1.26661348 7.68104869,1.17856629 7.56808987,1.17856629 L1.43176029,1.17856629 Z" id="Shape"></path>
                <path d="M18.5682397,20 L12.4319101,20 C11.6422472,20 11,19.3131537 11,18.4688151 L11,14.5313451 C11,13.6868463 11.6422472,13 12.4319101,13 L18.5682397,13 C19.3577528,13 20,13.6868463 20,14.5313451 L20,18.4688151 C20,19.3131537 19.3577528,20 18.5682397,20 L18.5682397,20 Z M12.4319101,14.31249 C12.3189513,14.31249 12.2272659,14.4105422 12.2272659,14.5313451 L12.2272659,18.4688151 C12.2272659,18.5894578 12.3189513,18.68751 12.4319101,18.68751 L18.5682397,18.68751 C18.6810487,18.68751 18.7727341,18.5894578 18.7727341,18.4688151 L18.7727341,14.5313451 C18.7727341,14.4105422 18.6810487,14.31249 18.5682397,14.31249 L12.4319101,14.31249 Z" id="Shape"></path>
                <path d="M18.5682397,11 L12.4319101,11 C11.6422472,11 11,10.3832381 11,9.62491007 L11,1.37494604 C11,0.616761933 11.6422472,0 12.4319101,0 L18.5682397,0 C19.3577528,0 20,0.616761933 20,1.37494604 L20,9.62491007 C20,10.3832381 19.3577528,11 18.5682397,11 L18.5682397,11 Z M12.4319101,1.17856629 C12.3189513,1.17856629 12.2272659,1.26661348 12.2272659,1.37494604 L12.2272659,9.62491007 C12.2272659,9.73338652 12.3189513,9.82143371 12.4319101,9.82143371 L18.5682397,9.82143371 C18.6810487,9.82143371 18.7727341,9.73338652 18.7727341,9.62491007 L18.7727341,1.37494604 C18.7727341,1.26661348 18.6810487,1.17856629 18.5682397,1.17856629 L12.4319101,1.17856629 Z" id="Shape"></path>
            </g>
        </g>
    </g>
</svg>