<?xml version="1.0" encoding="UTF-8"?>
<svg width="21px" height="26px" viewBox="0 0 21 26" version="1.1" xmlns="http://www.w3.org/2000/svg" xmlns:xlink="http://www.w3.org/1999/xlink">
    <!-- Generator: Sketch 57.1 (83088) - https://sketch.com -->
    <title>Group 19</title>
    <desc>Created with Sketch.</desc>
    <g id="Page-1" stroke="none" stroke-width="1" fill="none" fill-rule="evenodd">
        <g id="Desktop-(close)" transform="translate(-798.000000, -785.000000)" fill="#FFFFFF" fill-rule="nonzero">
            <g id="Group-4" transform="translate(770.000000, 768.000000)">
                <g id="Group-19" transform="translate(28.000000, 17.000000)">
                    <g id="2306103">
                        <path d="M15.1844204,0.1269125 C15.1062771,0.0456476966 15.0002934,0 14.8897849,0 L3.22311828,0 C1.61304926,0.00191040892 0.308288545,1.35886155 0.306451613,3.03333333 L0.306451613,22.9666667 C0.308288545,24.6411385 1.61304926,25.9980896 3.22311828,26 L17.3897849,26 C18.999854,25.9980896 20.3046147,24.6411385 20.3064516,22.9666667 L20.3064516,5.63333333 C20.3064516,5.51840459 20.2625596,5.40818149 20.1844204,5.3269125 L15.1844204,0.1269125 Z M15.3064516,1.47945417 L18.8838995,5.2 L17.3897849,5.2 C16.2397272,5.1986567 15.3077432,4.22939344 15.3064516,3.03333333 L15.3064516,1.47945417 Z M3.22311828,0.866666667 L14.4731183,0.866666667 L14.4731183,3.03333333 C14.4749552,4.70780512 15.7797159,6.06475626 17.3897849,6.06666667 L19.4731183,6.06666667 L19.4731183,18.2 L1.13978495,18.2 L1.13978495,3.03333333 C1.14107658,1.83727323 2.07306049,0.868009969 3.22311828,0.866666667 Z M17.3897849,25.1333333 L3.22311828,25.1333333 C2.07306049,25.13199 1.14107658,24.1627268 1.13978495,22.9666667 L1.13978495,19.0666667 L19.4731183,19.0666667 L19.4731183,22.9666667 C19.4718266,24.1627268 18.5398427,25.13199 17.3897849,25.1333333 L17.3897849,25.1333333 Z" id="Shape"></path>
                        <path d="M3.71270161,16 L15.9002016,16 C16.1245673,16 16.3064516,15.8209139 16.3064516,15.6 L16.3064516,8.4 C16.3064516,8.1790861 16.1245673,8 15.9002016,8 L3.71270161,8 C3.48833593,8 3.30645161,8.1790861 3.30645161,8.4 L3.30645161,15.6 C3.30645161,15.8209139 3.48833593,16 3.71270161,16 Z M4.11895161,13.6 L7.36895161,13.6 L7.36895161,15.2 L4.11895161,15.2 L4.11895161,13.6 Z M11.4314516,11.2 L11.4314516,12.8 L8.18145161,12.8 L8.18145161,11.2 L11.4314516,11.2 Z M8.18145161,10.4 L8.18145161,8.8 L11.4314516,8.8 L11.4314516,10.4 L8.18145161,10.4 Z M12.2439516,11.2 L15.4939516,11.2 L15.4939516,12.8 L12.2439516,12.8 L12.2439516,11.2 Z M11.4314516,13.6 L11.4314516,15.2 L8.18145161,15.2 L8.18145161,13.6 L11.4314516,13.6 Z M7.36895161,12.8 L4.11895161,12.8 L4.11895161,11.2 L7.36895161,11.2 L7.36895161,12.8 Z M12.2439516,15.2 L12.2439516,13.6 L15.4939516,13.6 L15.4939516,15.2 L12.2439516,15.2 Z M15.4939516,10.4 L12.2439516,10.4 L12.2439516,8.8 L15.4939516,8.8 L15.4939516,10.4 Z M7.36895161,8.8 L7.36895161,10.4 L4.11895161,10.4 L4.11895161,8.8 L7.36895161,8.8 Z" id="Shape"></path>
                    </g>
                    <path d="M5.26,23.955 C5.1866663,23.955 5.12500025,23.9300003 5.075,23.88 C5.02499975,23.8299998 5,23.7683337 5,23.695 L5,20.31 C5,20.233333 5.02499975,20.1708336 5.075,20.1225 C5.12500025,20.0741664 5.1866663,20.05 5.26,20.05 L6.455,20.05 C6.67833445,20.05 6.8766658,20.0941662 7.05,20.1825 C7.2233342,20.2708338 7.35916618,20.3941659 7.4575,20.5525 C7.55583383,20.7108341 7.605,20.889999 7.605,21.09 C7.605,21.2533342 7.56083378,21.3999994 7.4725,21.53 C7.38416623,21.6600007 7.2633341,21.7649996 7.11,21.845 C7.3366678,21.8983336 7.51499935,22.0049992 7.645,22.165 C7.77500065,22.3250008 7.84,22.5283321 7.84,22.775 C7.84,23.0016678 7.78583388,23.2049991 7.6775,23.385 C7.56916613,23.5650009 7.41750098,23.7049995 7.2225,23.805 C7.02749903,23.9050005 6.8066679,23.955 6.56,23.955 L5.26,23.955 Z M6.455,21.655 C6.65166765,21.655 6.80916608,21.6066672 6.9275,21.51 C7.04583393,21.4133329 7.105,21.2733343 7.105,21.09 C7.105,20.9066658 7.04583393,20.7675005 6.9275,20.6725 C6.80916608,20.5774995 6.65166765,20.53 6.455,20.53 L5.52,20.53 L5.52,21.655 L6.455,21.655 Z M6.56,23.475 C6.7933345,23.475 6.98166595,23.4141673 7.125,23.2925 C7.26833405,23.1708327 7.34,22.9983345 7.34,22.775 C7.34,22.5683323 7.26916738,22.4100006 7.1275,22.3 C6.98583263,22.1899995 6.79666785,22.135 6.56,22.135 L5.52,22.135 L5.52,23.475 L6.56,23.475 Z M10.42,24.005 C10.0333314,24.005 9.68916818,23.9200009 9.3875,23.75 C9.08583183,23.5799992 8.8516675,23.3425015 8.685,23.0375 C8.5183325,22.7324985 8.435,22.3866686 8.435,22 C8.435,21.6133314 8.5183325,21.2683349 8.685,20.965 C8.8516675,20.6616652 9.08583183,20.4250009 9.3875,20.255 C9.68916818,20.0849992 10.0333314,20 10.42,20 C10.8033353,20 11.1458318,20.0849992 11.4475,20.255 C11.7491682,20.4250009 11.9841658,20.6616652 12.1525,20.965 C12.3208342,21.2683349 12.405,21.6133314 12.405,22 C12.405,22.3866686 12.3208342,22.7324985 12.1525,23.0375 C11.9841658,23.3425015 11.7500015,23.5799992 11.45,23.75 C11.1499985,23.9200009 10.8066686,24.005 10.42,24.005 Z M10.42,23.535 C10.7033348,23.535 10.9583322,23.4675007 11.185,23.3325 C11.4116678,23.1974993 11.5883327,23.0133345 11.715,22.78 C11.8416673,22.5466655 11.905,22.2866681 11.905,22 C11.905,21.7133319 11.8416673,21.4533345 11.715,21.22 C11.5883327,20.9866655 11.4125011,20.803334 11.1875,20.67 C10.9624989,20.536666 10.7066681,20.47 10.42,20.47 C10.1333319,20.47 9.87750113,20.536666 9.6525,20.67 C9.42749888,20.803334 9.2516673,20.9866655 9.125,21.22 C8.9983327,21.4533345 8.935,21.7133319 8.935,22 C8.935,22.2866681 8.9983327,22.5466655 9.125,22.78 C9.2516673,23.0133345 9.4283322,23.1974993 9.655,23.3325 C9.8816678,23.4675007 10.1366653,23.535 10.42,23.535 Z M13.475,23.955 C13.4016663,23.955 13.3408336,23.9300003 13.2925,23.88 C13.2441664,23.8299998 13.22,23.7683337 13.22,23.695 L13.22,20.31 C13.22,20.2366663 13.2449998,20.1750003 13.295,20.125 C13.3450003,20.0749998 13.4049997,20.05 13.475,20.05 C13.5483337,20.05 13.6099998,20.0749998 13.66,20.125 C13.7100003,20.1750003 13.735,20.2366663 13.735,20.31 L13.735,23.435 L15.545,23.435 C15.6183337,23.435 15.6799998,23.4599998 15.73,23.51 C15.7800003,23.5600003 15.805,23.6216663 15.805,23.695 C15.805,23.7683337 15.7800003,23.8299998 15.73,23.88 C15.6799998,23.9300003 15.6183337,23.955 15.545,23.955 L13.475,23.955 Z" id="BOL"></path>
                </g>
            </g>
        </g>
    </g>
</svg>