<?xml version="1.0" encoding="UTF-8"?>
<svg width="29px" height="29px" viewBox="0 0 29 29" version="1.1" xmlns="http://www.w3.org/2000/svg" xmlns:xlink="http://www.w3.org/1999/xlink">
    <!-- Generator: Sketch 57.1 (83088) - https://sketch.com -->
    <title>1828784</title>
    <desc>Created with Sketch.</desc>
    <g id="Page-1" stroke="none" stroke-width="1" fill="none" fill-rule="evenodd">
        <g id="Desktop-(close)" transform="translate(-1421.000000, -2070.000000)" fill="#233B54" fill-rule="nonzero">
            <g id="Group-11" transform="translate(235.000000, 1907.000000)">
                <g id="1828784" transform="translate(1186.000000, 163.000000)">
                    <path d="M15,21 C14.4479981,21 14,20.5849445 14,20.0735327 L14,0.926467261 C14,0.415055538 14.4479981,0 15,0 C15.5520019,0 16,0.415055538 16,0.926467261 L16,20.0735327 C16,20.5849445 15.5520019,21 15,21 Z" id="Path"></path>
                    <path d="M14.9987281,21 C14.7561427,21 14.5137885,20.9070301 14.3292478,20.7199254 L9.27750477,15.6298848 C8.90749841,15.2570734 8.90749841,14.6526529 9.27750477,14.2796085 C9.64751113,13.9067972 10.247384,13.9067972 10.6176216,14.2796085 L14.9998844,18.6953265 L19.3823784,14.2796085 C19.7523848,13.9067972 20.3524889,13.9067972 20.7224952,14.2796085 C21.0925016,14.6526529 21.0925016,15.2570734 20.7224952,15.6298848 L15.6705209,20.7199254 C15.4836677,20.9070301 15.2413135,21 14.9987281,21 Z" id="Path"></path>
                    <path d="M25.6770096,29 L3.32299043,29 C1.48991397,29 0,27.4587214 0,25.5624499 L0,19.9374928 C0,19.419995 0.405998244,19 0.90625,19 C1.40650176,19 1.8125,19.419995 1.8125,19.9374928 L1.8125,25.5624499 C1.8125,26.4237257 2.49041748,27.1250143 3.32299043,27.1250143 L25.6770096,27.1250143 C26.5095825,27.1250143 27.1875,26.4237257 27.1875,25.5624499 L27.1875,19.9374928 C27.1875,19.419995 27.5934982,19 28.09375,19 C28.5940018,19 29,19.419995 29,19.9374928 L29,25.5624499 C29,27.4587214 27.510086,29 25.6770096,29 Z" id="Path"></path>
                </g>
            </g>
        </g>
    </g>
</svg>