<?xml version="1.0" encoding="UTF-8"?>
<svg width="35px" height="35px" viewBox="0 0 35 35" version="1.1" xmlns="http://www.w3.org/2000/svg" xmlns:xlink="http://www.w3.org/1999/xlink">
    <!-- Generator: Sketch 57.1 (83088) - https://sketch.com -->
    <title>Group 21</title>
    <desc>Created with Sketch.</desc>
    <g id="Page-1" stroke="none" stroke-width="1" fill="none" fill-rule="evenodd">
        <g id="Desktop-(close)" transform="translate(-237.000000, -1037.000000)">
            <g id="Group-21" transform="translate(237.000000, 1037.000000)">
                <path d="M18.8453608,25.7122862 C18.8247422,26.1415263 18.6855683,26.4634515 18.4278351,26.6780715 C18.1701018,26.8926916 17.8865995,27 17.5773196,27 C17.2886584,27 17.0206198,26.9020228 16.7731959,26.7060653 C16.525772,26.5101079 16.3711343,26.206845 16.3092784,25.7962675 C16.2886597,24.0419819 16.2731959,22.2503979 16.2628866,20.4214619 C16.2525773,18.5925258 16.2371135,16.8009419 16.2164948,15.0466563 C16.3195881,14.673404 16.4845349,14.3934691 16.7113402,14.2068429 C16.9381455,14.0202168 17.1958748,13.9269051 17.4845361,13.9269051 C17.7525787,13.9269051 18.0051535,14.0108856 18.242268,14.1788491 C18.4793826,14.3468127 18.649484,14.6080853 18.7525773,14.962675 C18.773196,16.7169606 18.7886597,18.5085445 18.7989691,20.3374806 C18.8092784,22.1664166 18.8247422,23.9580006 18.8453608,25.7122862 Z M16,10.4836703 C16,10.0730928 16.1443285,9.72317407 16.4329897,9.43390358 C16.7216509,9.14463308 17.0721629,9 17.4845361,9 C17.8969093,9 18.2525758,9.14463308 18.5515464,9.43390358 C18.850517,9.72317407 19,10.0730928 19,10.4836703 C19,10.8755852 18.850517,11.2161727 18.5515464,11.5054432 C18.2525758,11.7947137 17.8969093,11.9393468 17.4845361,11.9393468 C17.0721629,11.9393468 16.7216509,11.7947137 16.4329897,11.5054432 C16.1443285,11.2161727 16,10.8755852 16,10.4836703 Z" id="i" fill="#233B54" fill-rule="nonzero"></path>
                <circle id="Oval" stroke="#233B54" stroke-width="2" cx="17.5" cy="17.5" r="16.5"></circle>
            </g>
        </g>
    </g>
</svg>