<?xml version="1.0" encoding="UTF-8"?>
<svg width="22px" height="26px" viewBox="0 0 22 26" version="1.1" xmlns="http://www.w3.org/2000/svg" xmlns:xlink="http://www.w3.org/1999/xlink">
    <!-- Generator: Sketch 57.1 (83088) - https://sketch.com -->
    <title>Group 13</title>
    <desc>Created with Sketch.</desc>
    <g id="Page-1" stroke="none" stroke-width="1" fill="none" fill-rule="evenodd">
        <g id="Desktop-(open)" transform="translate(-1605.000000, -272.000000)" fill="#FFFFFF" fill-rule="nonzero">
            <g id="Group-8" transform="translate(1605.000000, 272.000000)">
                <g id="Group-13">
                    <g id="Group-12">
                        <path d="M16.5562487,26 L3.08681398,26 C1.38402062,26 0,24.5992654 0,22.8759085 L0,4.69984906 C0,2.97649214 1.38402062,1.57575758 3.08681398,1.57575758 L3.64790339,1.57575758 C4.11260052,1.57575758 4.48974306,1.95745463 4.48974306,2.42776361 C4.48974306,2.8980726 4.11260052,3.27976965 3.64790339,3.27976965 L3.08681398,3.27976965 C2.31341488,3.27976965 1.68367934,3.9171101 1.68367934,4.69984906 L1.68367934,22.8759085 C1.68367934,23.6586475 2.31341488,24.2959879 3.08681398,24.2959879 L16.5562487,24.2959879 C17.3296478,24.2959879 17.9591778,23.6586475 17.9591778,22.8759085 L17.9591778,22.3080432 C17.9591778,21.8377342 18.3363203,21.4560371 18.8010175,21.4560371 C19.2657146,21.4560371 19.6428571,21.8377342 19.6428571,22.3080432 L19.6428571,22.8759085 C19.6428571,24.5992654 18.2590421,26 16.5562487,26 Z" id="Path-Copy"></path>
                        <g id="1828926" transform="translate(6.285714, 0.000000)">
                            <path d="M7.85714286,15.7575758 C3.52454051,15.7575758 0,12.2233258 0,7.87878788 C0,3.53424999 3.52454051,0 7.85714286,0 C12.1897452,0 15.7142857,3.53424999 15.7142857,7.87878788 C15.7142857,12.2233258 12.1897452,15.7575758 7.85714286,15.7575758 Z M7.85714286,0.984848485 C4.06608582,0.984848485 0.982142857,4.07728716 0.982142857,7.87878788 C0.982142857,11.6802886 4.06608582,14.7727273 7.85714286,14.7727273 C11.6481999,14.7727273 14.7321429,11.6802886 14.7321429,7.87878788 C14.7321429,4.07728716 11.6481999,0.984848485 7.85714286,0.984848485 Z" id="Shape"></path>
                            <path d="M11.5590659,8.48484848 L4.15521978,8.48484848 C3.86329568,8.48484848 3.62637363,8.21333451 3.62637363,7.87878788 C3.62637363,7.54424125 3.86329568,7.27272727 4.15521978,7.27272727 L11.5590659,7.27272727 C11.85099,7.27272727 12.0879121,7.54424125 12.0879121,7.87878788 C12.0879121,8.21333451 11.85099,8.48484848 11.5590659,8.48484848 Z" id="Path"></path>
                            <path d="M7.85714286,12.1212121 C7.52351531,12.1212121 7.25274725,11.8836374 7.25274725,11.5909091 L7.25274725,4.16666667 C7.25274725,3.87393837 7.52351531,3.63636364 7.85714286,3.63636364 C8.1907704,3.63636364 8.46153846,3.87393837 8.46153846,4.16666667 L8.46153846,11.5909091 C8.46153846,11.8836374 8.1907704,12.1212121 7.85714286,12.1212121 Z" id="Path"></path>
                        </g>
                    </g>
                </g>
            </g>
        </g>
    </g>
</svg>