<?xml version="1.0" encoding="UTF-8"?>
<svg width="24px" height="24px" viewBox="0 0 24 24" version="1.1" xmlns="http://www.w3.org/2000/svg" xmlns:xlink="http://www.w3.org/1999/xlink">
    <!-- Generator: Sketch 57.1 (83088) - https://sketch.com -->
    <title>1798859</title>
    <desc>Created with Sketch.</desc>
    <g id="Page-1" stroke="none" stroke-width="1" fill="none" fill-rule="evenodd">
        <g id="Desktop-(close)" transform="translate(-964.000000, -785.000000)" fill="#FFFFFF" fill-rule="nonzero">
            <g id="Group-6" transform="translate(934.000000, 768.000000)">
                <g id="1798859" transform="translate(30.000000, 17.000000)">
                    <path d="M20.5976287,7.08541183 C20.572634,7.06533444 20.5427259,7.05016966 20.5126041,7.03543203 C20.4824824,7.02539333 20.4525743,7.01535463 20.417539,7.0102285 C20.3226875,6.9901511 20.2224952,7.0001898 20.1325571,7.03543203 C20.0676138,7.0602083 20.0124974,7.10036309 19.9674215,7.14521676 C19.8774835,7.23535135 19.8225806,7.36521348 19.8225806,7.50020174 C19.8225806,7.63027744 19.8774835,7.76013957 19.9674215,7.85027411 C20.0124974,7.90025397 20.0676138,7.93506894 20.1325571,7.96027247 C20.1925871,7.98526237 20.2575305,8 20.3226875,8 C20.3523819,8 20.3876309,7.99508749 20.417539,7.98996136 C20.4525743,7.98013623 20.4824824,7.97031117 20.5126041,7.96027247 C20.5427259,7.94510763 20.572634,7.93015643 20.5976287,7.91520517 C20.6275368,7.89512783 20.6525315,7.87505044 20.6777398,7.85027411 C20.7674642,7.76013957 20.8225806,7.63027744 20.8225806,7.50020174 C20.8225806,7.36521348 20.7674642,7.24026386 20.6777398,7.14521676 C20.6525315,7.12022686 20.6275368,7.10036309 20.5976287,7.08541183 Z" id="Path"></path>
                    <path d="M18.9600425,7.30578729 C18.9449522,7.27568762 18.9302869,7.25049788 18.9154091,7.22082518 C18.8954303,7.19563539 18.8756642,7.17087263 18.8505845,7.14568284 C18.7113709,7.0058583 18.4924548,6.96102909 18.3083953,7.03595797 C18.2486716,7.06072073 18.1940489,7.10085363 18.149203,7.14568284 C18.0548353,7.24067812 18,7.3655596 18,7.50047426 C18,7.56558338 18.0148778,7.63047904 18.039745,7.69046481 C18.0648247,7.75023713 18.0994686,7.80531302 18.149203,7.85035575 C18.1940489,7.90030836 18.2486716,7.93510434 18.3083953,7.96029413 C18.368119,7.98527041 18.4327311,8 18.5024442,8 C18.6316684,8 18.7611052,7.94513757 18.8505845,7.85035575 C18.9003188,7.80531302 18.9353879,7.75023713 18.9600425,7.69046481 C18.9849097,7.63047904 19,7.56558338 19,7.50047426 C19,7.46546471 18.994899,7.4355786 18.9900106,7.40056905 C18.9800212,7.37068295 18.9700318,7.33567339 18.9600425,7.30578729 L18.9600425,7.30578729 Z" id="Path"></path>
                    <path d="M22.5058614,5.47105421 L19.222791,5.47105421 L19.222791,0.48008612 C19.222791,0.214921088 19.0023914,0 18.730467,0 L5.91469422,0 C5.64276989,0 5.42237031,0.214921088 5.42237031,0.48008612 L5.42237031,5.47105421 L2.1392999,5.47105421 C1.4131169,5.47105421 0.822580645,6.04691148 0.822580645,6.75483852 L0.822580645,17.1221151 C0.822580645,17.8302472 1.4131169,18.4061045 2.1392999,18.4061045 L5.42237031,18.4061045 L5.42237031,23.5199139 C5.42237031,23.7850789 5.64276989,24 5.91469422,24 L18.730467,24 C19.0023914,24 19.222791,23.7850789 19.222791,23.5199139 L19.222791,18.4061045 L22.5058614,18.4061045 C23.2320444,18.4061045 23.8225806,17.8302472 23.8225806,17.1221151 L23.8225806,6.75483852 C23.8225806,6.04691148 23.2320444,5.47105421 22.5058614,5.47105421 Z M6.40680778,0.959967175 L18.2383535,0.959967175 L18.2383535,5.47105421 L6.40680778,5.47105421 L6.40680778,0.959967175 Z M6.40680778,23.0398278 L6.40680778,13.8552325 L18.2383535,13.8552325 L18.2383535,23.0398278 L6.40680778,23.0398278 Z M22.8381432,17.1221151 C22.8381432,17.3007374 22.689037,17.4461373 22.5058614,17.4461373 L19.222791,17.4461373 L19.222791,13.8552325 L20.7672704,13.8552325 C21.0389844,13.8552325 21.259384,13.6403114 21.259384,13.3753514 C21.259384,13.1101864 21.0389844,12.8952653 20.7672704,12.8952653 L3.87789082,12.8952653 C3.60617688,12.8952653 3.38577731,13.1101864 3.38577731,13.3753514 C3.38577731,13.6403114 3.60617688,13.8552325 3.87789082,13.8552325 L5.42237031,13.8552325 L5.42237031,17.4461373 L2.1392999,17.4461373 C1.95612428,17.4461373 1.80701809,17.3007374 1.80701809,17.1221151 L1.80701809,6.75483852 C1.80701809,6.57621617 1.95612428,6.43102139 2.1392999,6.43102139 L22.5058614,6.43102139 C22.689037,6.43102139 22.8381432,6.57621617 22.8381432,6.75483852 L22.8381432,17.1221151 Z" id="Shape"></path>
                    <path d="M9.49860037,18 L15.5013996,18 C15.7767906,18 16,17.7761162 16,17.4998931 C16,17.2238838 15.7767906,17 15.5013996,17 L9.49860037,17 C9.2232094,17 9,17.2238838 9,17.4998931 C9,17.7761162 9.2232094,18 9.49860037,18 Z" id="Path"></path>
                    <path d="M16.5396062,19 L8.46039375,19 C8.20610537,19 8,19.2238838 8,19.4998931 C8,19.7761162 8.20610537,20 8.46039375,20 L16.5396062,20 C16.7938946,20 17,19.7761162 17,19.4998931 C17,19.2238838 16.7938946,19 16.5396062,19 Z" id="Path"></path>
                    <path d="M16.3621868,21 L8.2829744,21 C8.02868601,21 7.82258065,21.2238838 7.82258065,21.4998931 C7.82258065,21.7761162 8.02868601,22 8.2829744,22 L16.3621868,22 C16.6164753,22 16.8225806,21.7761162 16.8225806,21.4998931 C16.8225806,21.2238838 16.6164753,21 16.3621868,21 Z" id="Path"></path>
                </g>
            </g>
        </g>
    </g>
</svg>