<?xml version="1.0" encoding="UTF-8"?>
<svg width="18px" height="24px" viewBox="0 0 18 24" version="1.1" xmlns="http://www.w3.org/2000/svg" xmlns:xlink="http://www.w3.org/1999/xlink">
    <!-- Generator: Sketch 57.1 (83088) - https://sketch.com -->
    <title>Group 14</title>
    <desc>Created with Sketch.</desc>
    <g id="Page-1" stroke="none" stroke-width="1" fill="none" fill-rule="evenodd">
        <g id="Desktop-(open)" transform="translate(-41.000000, -356.000000)" fill="#233B54">
            <g id="Group-14" transform="translate(41.000000, 356.000000)">
                <polygon id="Rectangle" fill-opacity="0.3" points="1 1 12.3855743 0.587914701 17 5.00001563 17 23 1 23"></polygon>
                <g id="522575" fill-rule="nonzero">
                    <path d="M17.8535156,5.1465 L12.8535,0.146484375 C12.75975,0.052734375 12.6328125,0 12.4999688,0 L1.99996875,0 C0.89746875,0 0,0.896953125 0,2.00001563 L0,22.0000312 C0,23.1030469 0.89746875,24 2.00001563,24 L16.0000313,24 C17.1025313,24 18,23.1030469 18,21.9999844 L18,5.49998438 C18,5.3671875 17.9472656,5.24025 17.8535156,5.1465 Z M12.9999844,1.70704688 L16.2929531,5.00001563 L13.9999688,5.00001563 C13.4482031,5.00001563 12.9999844,4.55128125 12.9999844,4.00003125 L12.9999844,1.70704688 L12.9999844,1.70704688 Z M17.0000156,21.9999844 C17.0000156,22.5512344 16.55175,22.9999688 16.0000313,22.9999688 L2.00001563,22.9999688 C1.44825,22.9999688 1.00003125,22.5512344 1.00003125,21.9999844 L1.00003125,2.00001563 C1.00003125,1.44876563 1.44829688,1.00003125 2.00001563,1.00003125 L12,1.00003125 L12,4.00003125 C12,5.10304688 12.8974688,6 14.0000156,6 L17.0000156,6 L17.0000156,21.9999844 Z" id="Shape"></path>
                    <path d="M14.4999395,14 L3.50001367,14 C3.22363975,14 3,14.2236336 3,14.5 C3,14.7763664 3.22363975,15 3.50001367,15 L14.4999863,15 C14.7763602,15 15,14.7763664 15,14.5 C15,14.2236336 14.7763134,14 14.4999395,14 Z" id="Path"></path>
                    <path d="M14.4999395,11 L3.50001367,11 C3.22363975,11 3,11.2236336 3,11.5 C3,11.7763664 3.22363975,12 3.50001367,12 L14.4999863,12 C14.7763602,12 15,11.7763664 15,11.5 C15,11.2236336 14.7763134,11 14.4999395,11 Z" id="Path"></path>
                    <path d="M14.4999395,17 L3.50001367,17 C3.22363975,17 3,17.2236336 3,17.5 C3,17.7763664 3.22363975,18 3.50001367,18 L14.4999863,18 C14.7763602,18 15,17.7763664 15,17.5 C15,17.2236336 14.7763134,17 14.4999395,17 Z" id="Path"></path>
                    <path d="M9.49998661,20 L3.50001339,20 C3.22363963,20 3,20.2236336 3,20.5 C3,20.7763664 3.22363963,21 3.50001339,21 L9.49998661,21 C9.77636037,21 10,20.7763664 10,20.5 C10,20.2236336 9.77636037,20 9.49998661,20 Z" id="Path"></path>
                    <path d="M8,8.5 C8,8.77636636 8.22363963,9 8.50001339,9 L14.4999866,9 C14.7763604,9 15,8.77636636 15,8.5 C15,8.22363364 14.7763604,8 14.4999866,8 L8.50001339,8 C8.22363963,8.00004687 8,8.22368051 8,8.5 Z" id="Path"></path>
                    <path d="M4.5,7.49998828 L3.50001563,7.49998828 C3.22364063,7.49998828 3,7.72362367 3,8 C3,8.27636071 3.22364062,8.5 3.50001563,8.5 L4.00003125,8.5 C4.00003125,8.77636462 4.22367187,9 4.50004688,9 C4.77642188,9 5.0000625,8.77636462 5.0000625,8.5 L5.0000625,8.40788888 C5.58075,8.20075311 6,7.65096912 6,6.99998438 C6,6.17284751 5.32715625,5.50001953 4.5,5.50001953 C4.22460938,5.50001953 3.99998437,5.27591541 3.99998437,5.00001562 C3.99998437,4.72416271 4.22460938,4.50001172 4.5,4.50001172 L5.49998438,4.50001172 C5.77635937,4.50001172 6,4.27637633 6,4 C6,3.72363929 5.77635938,3.5 5.49998438,3.5 L4.99996875,3.5 C4.99996875,3.22363538 4.77632813,3 4.49995312,3 C4.22357812,3 3.9999375,3.22363538 3.9999375,3.5 L3.9999375,3.59211112 C3.41925,3.79924689 3,4.34903088 3,5.00001562 C3,5.82715249 3.67284375,6.49998047 4.5,6.49998047 C4.77539062,6.49998047 5.00001562,6.72408459 5.00001562,6.99998438 C5.00001562,7.27588416 4.77539062,7.49998828 4.5,7.49998828 Z" id="Path"></path>
                </g>
            </g>
        </g>
    </g>
</svg>