<?xml version="1.0" encoding="UTF-8"?>
<svg width="35px" height="35px" viewBox="0 0 35 35" version="1.1" xmlns="http://www.w3.org/2000/svg" xmlns:xlink="http://www.w3.org/1999/xlink">
    <!-- Generator: Sketch 57.1 (83088) - https://sketch.com -->
    <title>Group 22</title>
    <desc>Created with Sketch.</desc>
    <g id="Page-1" stroke="none" stroke-width="1" fill="none" fill-rule="evenodd">
        <g id="Desktop-(close)" transform="translate(-235.000000, -1918.000000)">
            <g id="Group-11" transform="translate(235.000000, 1907.000000)">
                <g id="Group-22" transform="translate(0.000000, 11.000000)">
                    <circle id="Oval-Copy" stroke="#233B54" stroke-width="2" cx="17.5" cy="17.5" r="16.5"></circle>
                    <path d="M22,20.8935722 C22,22.134885 21.5997415,23.1325919 20.7992126,23.8867229 C19.9986837,24.6408538 18.9619486,25.0779762 17.6889764,25.1981033 L17.6889764,26.4394099 C17.6889764,26.6129268 17.6430451,26.7497361 17.5511811,26.8498419 C17.4593171,26.9499478 17.3412081,27 17.1968504,27 C17.0393693,27 16.9146986,26.9499478 16.8228346,26.8498419 C16.7309707,26.7497361 16.6850394,26.6129268 16.6850394,26.4394099 L16.6850394,25.2181243 C15.6089185,25.1513871 14.6574844,24.867758 13.8307087,24.3672287 C13.0039329,23.8666993 12.4133876,23.196 12.0590551,22.3551106 C12.0196848,22.248331 12,22.1482267 12,22.0547945 C12,21.7344557 12.170602,21.5208997 12.511811,21.4141201 C12.5511813,21.4007727 12.6102358,21.3940991 12.6889764,21.3940991 C13.0039386,21.3940991 13.2335951,21.554266 13.3779528,21.8746048 C13.6141744,22.4218503 14.0275561,22.8623095 14.6181102,23.1959958 C15.2086644,23.529682 15.8976339,23.7165435 16.6850394,23.7565859 L16.6850394,17.6101159 C15.3989437,17.3832093 14.3851743,16.8960346 13.6437008,16.1485774 C12.9022273,15.4011203 12.5314961,14.4734864 12.5314961,13.3656481 C12.5314961,12.2711572 12.9153505,11.383565 13.6830709,10.7028451 C14.4507912,10.0221252 15.4514374,9.62838129 16.6850394,9.52160169 L16.6850394,8.56059009 C16.6850394,8.38707325 16.7309707,8.25026394 16.8228346,8.15015806 C16.9146986,8.05005219 17.0393693,8 17.1968504,8 C17.3412081,8 17.4593171,8.05005219 17.5511811,8.15015806 C17.6430451,8.25026394 17.6889764,8.38707325 17.6889764,8.56059009 L17.6889764,9.52160169 C18.5813693,9.58833894 19.3654822,9.84527349 20.0413386,10.2924131 C20.717195,10.7395526 21.2322817,11.2968003 21.5866142,11.9641728 C21.6784781,12.1109948 21.7244094,12.2711618 21.7244094,12.4446786 C21.7244094,12.6982802 21.612862,12.8851417 21.3897638,13.0052687 C21.2978998,13.0586585 21.192914,13.085353 21.0748031,13.085353 C20.8123346,13.085353 20.5958014,12.9585541 20.4251969,12.7049526 C19.8346427,11.6371566 18.9225783,11.0498776 17.6889764,10.943098 L17.6889764,16.4488936 C19.0931829,16.7024951 20.162726,17.2096906 20.8976378,17.9704953 C21.6325496,18.7312999 22,19.7056491 22,20.8935722 Z M14.007874,13.4056902 C14.007874,14.8739097 14.9002535,15.8282381 16.6850394,16.2687039 L16.6850394,10.943098 C15.8451402,11.0098352 15.1889787,11.2500857 14.7165354,11.6638567 C14.2440921,12.0776276 14.007874,12.658233 14.007874,13.4056902 Z M20.484252,20.8935722 C20.484252,20.1327675 20.2513147,19.4787523 19.7854331,18.9315068 C19.3195515,18.3842614 18.6207396,18.0038648 17.6889764,17.7903056 L17.6889764,23.7365648 C18.541999,23.6297852 19.2211261,23.3294721 19.726378,22.8356164 C20.2316298,22.3417608 20.484252,21.6944192 20.484252,20.8935722 Z" id="$" fill="#233B54" fill-rule="nonzero"></path>
                </g>
            </g>
        </g>
    </g>
</svg>