<?xml version="1.0" encoding="UTF-8"?>
<svg width="22px" height="22px" viewBox="0 0 22 22" version="1.1" xmlns="http://www.w3.org/2000/svg" xmlns:xlink="http://www.w3.org/1999/xlink">
    <!-- Generator: Sketch 57.1 (83088) - https://sketch.com -->
    <title>860820</title>
    <desc>Created with Sketch.</desc>
    <g id="Page-1" stroke="none" stroke-width="1" fill="none" fill-rule="evenodd">
        <g id="Desktop-(close)" transform="translate(-1126.000000, -786.000000)" fill="#FFFFFF" fill-rule="nonzero">
            <g id="Group-5" transform="translate(1098.000000, 768.000000)">
                <g id="Group-3" transform="translate(28.000000, 17.000000)">
                    <g id="860820" transform="translate(0.000000, 1.000000)">
                        <path d="M21.8460297,9.69670489 C21.7716554,9.24977778 21.3334228,8.94531229 20.8672435,9.01661512 C20.4010641,9.08791795 20.0834832,9.50805248 20.1578576,9.95497959 C20.1586589,9.95987715 20.1595103,9.96472671 20.1604118,9.96957626 C21.030867,14.8820772 17.5826025,19.540913 12.4584864,20.3754202 C7.33437037,21.2099274 2.47484664,17.9040689 1.60439149,12.9915679 C0.733936334,8.07906692 4.18225093,3.42023116 9.3063169,2.58572395 C12.4575348,2.07253563 15.6650469,3.12781753 17.8235052,5.38794922 L14.0369251,6.59745651 C13.5889763,6.74035026 13.3467213,7.20427481 13.4957204,7.63372432 C13.4957705,7.63382035 13.4958205,7.6339644 13.4958706,7.63406043 C13.6449198,8.06350994 14.1288288,8.2957603 14.5767776,8.15291456 C14.5769279,8.15286655 14.577028,8.15281853 14.5771282,8.15281853 L19.7057017,6.51390975 C20.0548854,6.40241806 20.2904292,6.08911774 20.2903791,5.73625275 L20.2903791,0.819478397 C20.2903791,0.366885477 19.9076894,0 19.4356002,0 C18.963511,0 18.5808212,0.366885477 18.5808212,0.819478397 L18.5808212,3.81294891 C14.1788624,-0.200944342 7.21627294,-0.0337067929 3.02947382,4.18646051 C-1.15732531,8.4066278 -0.982933781,15.0816772 3.41907512,19.0956184 C7.82108402,23.1095597 14.7836234,22.9423221 18.9704726,18.7221068 C21.3579137,16.3155762 22.4233949,12.9714495 21.8460297,9.69670489 Z" id="Path"></path>
                    </g>
                </g>
            </g>
        </g>
    </g>
</svg>