<?xml version="1.0" encoding="UTF-8"?>
<svg width="25px" height="25px" viewBox="0 0 25 25" version="1.1" xmlns="http://www.w3.org/2000/svg" xmlns:xlink="http://www.w3.org/1999/xlink">
    <!-- Generator: Sketch 57.1 (83088) - https://sketch.com -->
    <title>482631</title>
    <desc>Created with Sketch.</desc>
    <g id="Page-1" stroke="none" stroke-width="1" fill="none" fill-rule="evenodd">
        <g id="Desktop-(open)" transform="translate(-431.000000, -273.000000)" fill="#7D7D7D" fill-rule="nonzero">
            <g id="482631" transform="translate(431.000000, 273.000000)">
                <path d="M24.8473939,24.1109375 L17.2406612,16.5041504 C18.8206405,14.7499023 19.7916847,12.4369629 19.7916847,9.89580078 C19.7916359,4.43930664 15.3523813,0 9.89584236,0 C4.43930339,0 0,4.43930664 0,9.89584961 C0,15.3523926 4.43930339,19.7916992 9.89584236,19.7916992 C12.4370026,19.7916992 14.7498915,18.8206543 16.5041871,17.2406738 L24.1109198,24.8474121 C24.2126287,24.9491211 24.3459294,25 24.4791813,25 C24.6124331,25 24.745685,24.9491211 24.8474427,24.8474121 C25.0508606,24.6439453 25.0508606,24.3143555 24.8473939,24.1109375 Z M9.89584236,18.75 C5.01405883,18.75 1.04169846,14.778125 1.04169846,9.89584961 C1.04169846,5.01357422 5.01405883,1.04165039 9.89584236,1.04165039 C14.7776259,1.04165039 18.7499863,5.01352539 18.7499863,9.89584961 C18.7499863,14.7781738 14.7776259,18.75 9.89584236,18.75 Z" id="Shape"></path>
            </g>
        </g>
    </g>
</svg>