<?xml version="1.0" encoding="UTF-8"?>
<svg width="21px" height="21px" viewBox="0 0 21 21" version="1.1" xmlns="http://www.w3.org/2000/svg" xmlns:xlink="http://www.w3.org/1999/xlink">
    <!-- Generator: Sketch 57.1 (83088) - https://sketch.com -->
    <title>1242495</title>
    <desc>Created with Sketch.</desc>
    <g id="Page-1" stroke="none" stroke-width="1" fill="none" fill-rule="evenodd">
        <g id="Desktop-(open)" transform="translate(-40.000000, -519.000000)" fill="#000000" fill-rule="nonzero">
            <g id="1242495" transform="translate(40.000000, 519.000000)">
                <g id="1242494">
                    <path d="M10.5,5.25 C7.60522788,5.25 5.25,7.60522788 5.25,10.5 C5.25,13.3947721 7.60522788,15.75 10.5,15.75 C13.3947721,15.75 15.75,13.3947721 15.75,10.5 C15.75,7.60522788 13.3947721,5.25 10.5,5.25 Z M10.5,14.4375 C8.32892092,14.4375 6.56249999,12.6710791 6.56249999,10.5 C6.56249999,8.32892092 8.32892092,6.56249999 10.5,6.56249999 C12.6710791,6.56249999 14.4375,8.32892092 14.4375,10.5 C14.4375,12.6710791 12.6710791,14.4375 10.5,14.4375 Z" id="Shape"></path>
                    <path d="M20.5058899,8.10891724 L18.8918609,7.7580414 C18.7515106,7.32833862 18.5776749,6.90921021 18.3724365,6.50546265 L19.2659683,5.11557769 C19.4255447,4.86724092 19.3904571,4.54119873 19.1818542,4.3325958 L16.6674042,1.81814575 C16.4588013,1.60954287 16.1327591,1.57445527 15.8844223,1.73403169 L14.4945374,2.62756348 C14.0907898,2.42232514 13.6716614,2.24848936 13.2419586,2.10813906 L12.8910828,0.494110107 C12.8284378,0.205718994 12.5730515,0 12.2779312,0 L8.7220688,0 C8.42694854,0 8.17156221,0.205718994 8.10891724,0.494110107 L7.7580414,2.10813906 C7.32833862,2.24848936 6.90921021,2.42232514 6.50546265,2.62756348 L5.11557769,1.73403169 C4.86724092,1.57445527 4.54119873,1.60954287 4.3325958,1.81814575 L1.81814575,4.3325958 C1.60954287,4.54119873 1.57445527,4.86724092 1.73403169,5.11557769 L2.62756348,6.50546265 C2.42232514,6.90921021 2.24848936,7.32833862 2.10813906,7.7580414 L0.494110107,8.10891724 C0.205718994,8.17172241 0,8.42694854 0,8.7220688 L0,12.2779312 C0,12.5730515 0.205718994,12.8282776 0.494110107,12.8910828 L2.10813906,13.2419586 C2.24848936,13.6716614 2.42232514,14.0907898 2.62756348,14.4945374 L1.73403169,15.8844223 C1.57445527,16.1327591 1.60954287,16.4588013 1.81814575,16.6674042 L4.3325958,19.1818542 C4.54119873,19.3904571 4.86724092,19.4255447 5.11557769,19.2659683 L6.50546265,18.3724365 C6.90921021,18.5776749 7.32833862,18.7515106 7.7580414,18.8918609 L8.10891724,20.5058899 C8.17156221,20.794281 8.42694854,21 8.7220688,21 L12.2779312,21 C12.5730515,21 12.8284378,20.794281 12.8910828,20.5058899 L13.2419586,18.8918609 C13.6716614,18.7515106 14.0907898,18.5776749 14.4945374,18.3724365 L15.8844223,19.2659683 C16.1327591,19.4255447 16.4588013,19.3906174 16.6674042,19.1818542 L19.1818542,16.6674042 C19.3904571,16.4588013 19.4255447,16.1327591 19.2659683,15.8844223 L18.3724365,14.4945374 C18.5776749,14.0907898 18.7515106,13.6716614 18.8918609,13.2419586 L20.5058899,12.8910828 C20.794281,12.8282776 21,12.5730515 21,12.2779312 L21,8.7220688 C21,8.42694854 20.794281,8.17172241 20.5058899,8.10891724 Z M19.745018,11.7721252 L18.2650909,12.0938416 C18.0377426,12.1433487 17.8563767,12.3144607 17.7938919,12.5384445 C17.6312714,13.1217957 17.3973541,13.6859207 17.0987091,14.2151184 C16.984314,14.4177933 16.9913635,14.6670914 17.1172943,14.8628769 L17.9368057,16.1375656 L16.1377258,17.9368057 L14.8628769,17.1172943 C14.6670914,16.9913635 14.4177933,16.984314 14.2152786,17.0987091 C13.6859207,17.3973541 13.1217957,17.6312714 12.5384445,17.7938919 C12.3144607,17.8563767 12.1433487,18.0377426 12.0938416,18.2650909 L11.7721252,19.745018 L9.22787476,19.745018 L8.90615845,18.2650909 C8.85665132,18.0377426 8.68553926,17.8563767 8.46155547,17.7938919 C7.87820435,17.6312714 7.31407929,17.3973541 6.78488159,17.0987091 C6.58220674,16.984314 6.33290864,16.9915237 6.1371231,17.1172943 L4.86243438,17.9368057 L3.06335449,16.1375656 L3.88270567,14.8628769 C4.00863647,14.6670914 4.01584624,14.4177933 3.90145112,14.2151184 C3.6028061,13.6859207 3.36888887,13.1217957 3.2061081,12.5384445 C3.14362334,12.3144607 2.96241758,12.1433487 2.73506929,12.0938416 L1.25498198,11.7721252 L1.25498198,9.22787476 L2.73490908,8.90615845 C2.96225737,8.85665132 3.14362334,8.68553926 3.2061081,8.46155547 C3.36872862,7.87820435 3.60264589,7.31407929 3.90129091,6.78488159 C4.01568604,6.58220674 4.00863647,6.33290864 3.88270567,6.1371231 L3.06319429,4.86243438 L4.86227417,3.06319429 L6.1371231,3.88270567 C6.33290864,4.00863647 6.58220674,4.01568604 6.78472138,3.90129091 C7.31407929,3.60264589 7.87820435,3.36872862 8.46155547,3.2061081 C8.68553926,3.14362334 8.85665132,2.96225738 8.90615845,2.73490908 L9.22787476,1.25498198 L11.7721252,1.25498198 L12.0938416,2.73490908 C12.1433487,2.96225738 12.3144607,3.14362334 12.5384445,3.2061081 C13.1217957,3.36872862 13.6859207,3.60264589 14.2151184,3.90129091 C14.4177933,4.01568604 14.6670914,4.00847627 14.8628769,3.88270567 L16.1375656,3.06319429 L17.9366455,4.86243438 L17.1172943,6.1371231 C16.9913635,6.33290864 16.9841538,6.58220674 17.0985489,6.78488159 C17.3973541,7.31407929 17.6311111,7.87820435 17.7938919,8.46155547 C17.8563767,8.68553926 18.0375824,8.85665132 18.2649307,8.90615845 L19.745018,9.22787476 L19.745018,11.7721252 Z" id="Shape"></path>
                </g>
            </g>
        </g>
    </g>
</svg>