<?xml version="1.0" encoding="UTF-8"?>
<svg width="20px" height="22px" viewBox="0 0 20 22" version="1.1" xmlns="http://www.w3.org/2000/svg" xmlns:xlink="http://www.w3.org/1999/xlink">
    <!-- Generator: Sketch 57.1 (83088) - https://sketch.com -->
    <title>Group 14</title>
    <desc>Created with Sketch.</desc>
    <g id="Page-1" stroke="none" stroke-width="1" fill="none" fill-rule="evenodd">
        <g id="Desktop-(open)" transform="translate(-40.000000, -272.000000)" fill="#233B54">
            <g id="Group-14" transform="translate(40.000000, 272.000000)">
                <path d="M6,1 C10.1276905,0.80850871 13.3085078,0.80850871 15.5424519,1 C17.7763961,1.19149129 18.9289121,2.18507663 19,3.98075603 L19,16 L6,16 L6,1 Z" id="Rectangle" fill-opacity="0.3"></path>
                <path d="M1,3.17070771 C4.33333333,3.17070771 6,3.17070771 6,3.17070771 C6,3.17070771 6,7.33310195 6,15.6578904 L15,16 L15,21 L1,21 L1,3.17070771 Z" id="Rectangle-Copy" fill-opacity="0.3"></path>
                <path d="M13.4858171,22 L2.5143503,22 C1.1273477,22 0,20.8529965 0,19.4418109 L0,4.55818906 C0,3.14700349 1.1273477,2 2.5143503,2 L2.97138312,2 C3.34990006,2 3.6570998,2.3125559 3.6570998,2.69767244 C3.6570998,3.08278897 3.34990006,3.39534488 2.97138312,3.39534488 L2.5143503,3.39534488 C1.88438157,3.39534488 1.37143336,3.91723656 1.37143336,4.55818906 L1.37143336,19.4418109 C1.37143336,20.0827634 1.88438157,20.6046551 2.5143503,20.6046551 L13.4858171,20.6046551 C14.1157859,20.6046551 14.6285666,20.0827634 14.6285666,19.4418109 L14.6285666,18.9768096 C14.6285666,18.591693 14.9357664,18.2791371 15.3142833,18.2791371 C15.6928003,18.2791371 16,18.591693 16,18.9768096 L16,19.4418109 C16,20.8529965 14.8728197,22 13.4858171,22 Z" id="Path" fill-rule="nonzero"></path>
                <path d="M17.5736197,17 L7.42638028,17 C6.08781585,17 5,15.8969209 5,14.539575 L5,2.46058884 C5,1.10324293 6.08781585,0 7.42638028,0 L14.9334892,0 C15.804485,0 16.6577088,0.357972331 17.2726245,0.983318054 L19.030288,2.76564351 C19.655867,3.39999999 20,4.24291426 20,5.13841855 L20,14.539575 C20,15.8969209 18.9121841,17 17.5736197,17 L17.5736197,17 Z M7.42638028,1.34210958 C6.8184119,1.34210958 6.32353892,1.84409001 6.32353892,2.46058884 L6.32353892,14.539575 C6.32353892,15.1560739 6.8184119,15.6578904 7.42638028,15.6578904 L17.5736197,15.6578904 C18.1815881,15.6578904 18.6764611,15.1560739 18.6764611,14.539575 L18.6764611,5.13841855 C18.6764611,4.60072277 18.4699813,4.09530188 18.0949894,3.71488461 L16.3373258,1.93255915 C15.9676655,1.55689299 15.4567976,1.34210958 14.9334892,1.34210958 L7.42638028,1.34210958 Z" id="Shape" fill-rule="nonzero"></path>
                <g id="Group" transform="translate(12.500000, 8.500000) scale(1, -1) translate(-12.500000, -8.500000) translate(8.000000, 4.000000)" fill-rule="nonzero">
                    <g id="545682-copy-2" transform="translate(0.000000, 5.000000)">
                        <path d="M8.8968823,1.77166118 C8.89677684,1.77156441 8.89668894,1.7714515 8.8965659,1.77135473 L7.05958243,0.0939344313 C6.92196336,-0.0317269296 6.69937168,-0.0312591874 6.56238542,0.0950312061 C6.42541673,0.221305471 6.42594408,0.425547521 6.56356315,0.551225011 L7.7969141,1.67741919 L0.351562326,1.67741919 C0.157394453,1.67741919 0,1.82183863 0,2 C0,2.17816141 0.157394453,2.32258085 0.351562326,2.32258085 L7.79689652,2.32258085 L6.56358073,3.44877503 C6.42596166,3.57445252 6.42543431,3.77869457 6.56240299,3.90496883 C6.69938925,4.03127535 6.92199852,4.03171084 7.05960001,3.90606561 L8.89658348,2.22864531 C8.89668894,2.22854853 8.89677684,2.22843563 8.89689988,2.22833886 C9.03458927,2.10224201 9.03414981,1.89733867 8.8968823,1.77166118 Z" id="Path"></path>
                    </g>
                    <g id="545682-copy">
                        <path d="M8.89689506,1.77166118 L7.0595871,0.0939344313 C6.92196742,-0.0317269296 6.69937475,-0.0312591874 6.56238789,0.0950312061 C6.42541861,0.221305471 6.42594595,0.425547521 6.56356563,0.551225011 L7.79692201,1.67741919 L0.351537463,1.67741919 C0.157368736,1.67741919 -2.64101641e-05,1.82183863 -2.64101641e-05,2 C-2.64101641e-05,2.17816141 0.157368736,2.32258085 0.351537463,2.32258085 L7.79690443,2.32258085 L6.56358321,3.44877503 C6.42596353,3.57445252 6.42543618,3.77869457 6.56240547,3.90496883 C6.69939233,4.03127535 6.92200258,4.03171084 7.05960468,3.90606561 L8.89659623,2.22864531 C9.03460262,2.10224201 9.03416317,1.89733867 8.89689506,1.77166118 Z" id="Path"></path>
                    </g>
                </g>
            </g>
        </g>
    </g>
</svg>