<?xml version="1.0" encoding="UTF-8"?>
<svg width="114px" height="114px" viewBox="0 0 114 114" version="1.1" xmlns="http://www.w3.org/2000/svg" xmlns:xlink="http://www.w3.org/1999/xlink">
    <!-- Generator: Sketch 57.1 (83088) - https://sketch.com -->
    <title>Group 18</title>
    <desc>Created with Sketch.</desc>
    <g id="Page-1" stroke="none" stroke-width="1" fill="none" fill-rule="evenodd">
        <g id="Desktop-(close)" transform="translate(-290.000000, -334.000000)" fill="#233B54">
            <g id="Group-18" transform="translate(290.000000, 334.000000)">
                <circle id="Oval" stroke="#233B54" stroke-width="3" fill-opacity="0.3" cx="57" cy="57" r="55.5"></circle>
                <g id="411763" transform="translate(19.000000, 33.000000)" fill-rule="nonzero">
                    <path d="M70.6798412,20.3488651 L68.7117045,12.4887471 C69.2497915,12.3746283 69.6535423,11.8979971 69.6535423,11.3269584 L69.6535423,10.0596468 C69.6535423,7.30804976 67.4113895,5.06954269 64.6556419,5.06954269 L55.6911869,5.06954269 L55.6911869,2.45548101 C55.6911869,1.10146879 54.5879972,0 53.2318696,0 L7.53648347,0 C6.18035582,0 5.07716617,1.10146879 5.07716617,2.45548101 L5.07716617,24.0002223 C5.07716617,24.6563313 5.60990939,25.1883917 6.26719193,25.1883917 C6.92432602,25.1883917 7.45721769,24.6564795 7.45721769,24.0002223 L7.45721769,2.45548101 C7.45721769,2.41176017 7.49269432,2.37633887 7.53648347,2.37633887 L53.2317212,2.37633887 C53.2755103,2.37633887 53.3109869,2.41176017 53.3109869,2.45548101 L53.3109869,24.0005187 C53.3109869,24.6566278 53.8437302,25.1886882 54.5010127,25.1886882 C55.1581468,25.1886882 55.6910385,24.656776 55.6910385,24.0005187 L55.6910385,22.6536204 L69.7286518,22.6536204 C69.7298393,22.6536204 69.7307299,22.6539168 69.731769,22.6539168 C69.7329565,22.6539168 69.7339956,22.6537686 69.7350346,22.6537686 C71.4624052,22.6549543 72.929119,23.7869535 73.4329169,25.3468242 L69.7326596,25.3468242 C69.0755255,25.3468242 68.5426339,25.8787364 68.5426339,26.5349937 L68.5426339,29.0696168 C68.5426339,31.1224214 70.2152309,32.7924094 72.2712427,32.7924094 L73.6199485,32.7924094 L73.6199485,38.0200881 L70.5083955,38.0200881 C69.4862529,35.0733034 66.6806302,32.9506936 63.3860535,32.9506936 C60.0914767,32.9506936 57.2857056,35.0733034 56.2637115,38.0200881 L55.6907416,38.0200881 L55.6907416,29.0694686 C55.6907416,28.4133596 55.1579984,27.8812992 54.5007158,27.8812992 C53.8435817,27.8812992 53.3106901,28.4132114 53.3106901,29.0694686 L53.3106901,38.0197917 L28.6213293,38.0197917 C27.5991867,35.073007 24.793564,32.9503972 21.4989873,32.9503972 C18.2044106,32.9503972 15.3986395,35.073007 14.3766453,38.0197917 L7.53648347,38.0197917 C7.49269432,38.0197917 7.45721769,37.9843704 7.45721769,37.9406496 L7.45721769,35.3267361 L12.6137981,35.3267361 C13.2709322,35.3267361 13.8038238,34.7948239 13.8038238,34.1385667 C13.8038238,33.4823094 13.2710806,32.9503972 12.6137981,32.9503972 L1.19002576,32.9503972 C0.532891666,32.9503972 0,33.4823094 0,34.1385667 C0,34.7948239 0.532743228,35.3267361 1.19002576,35.3267361 L5.0773146,35.3267361 L5.0773146,37.9406496 C5.0773146,39.2946618 6.18050426,40.3961306 7.53663191,40.3961306 L13.964582,40.3961306 C13.9642851,40.4225113 13.9625038,40.4487438 13.9625038,40.4752727 C13.9625038,44.6244546 17.3434714,48 21.4989873,48 C25.6545032,48 29.0354708,44.6244546 29.0354708,40.4752727 C29.0354708,40.4485956 29.0336895,40.4225113 29.0333926,40.3961306 L55.8516481,40.3961306 C55.8513513,40.4225113 55.84957,40.4487438 55.84957,40.4752727 C55.84957,44.6244546 59.2305376,48 63.3860535,48 C67.5415694,48 70.922537,44.6244546 70.922537,40.4752727 C70.922537,40.4485956 70.9207557,40.4225113 70.9204588,40.3961306 L74.8099742,40.3961306 C75.4671083,40.3961306 76,39.8642184 76,39.2079611 L76,26.5346972 C76,23.4057671 73.687933,20.8060814 70.6798412,20.3488651 Z M55.6911869,7.44573336 L64.6556419,7.44573336 C66.0991994,7.44573336 67.2736392,8.61834114 67.2736392,10.0596468 L67.2736392,10.138789 L55.6911869,10.138789 L55.6911869,7.44573336 Z M55.6911869,20.2774297 L55.6911869,12.5149796 L66.2651529,12.5149796 L68.2087973,20.2774297 L55.6911869,20.2774297 Z M21.4989873,45.6241057 C18.6556614,45.6241057 16.3424069,43.3146079 16.3424069,40.4755691 C16.3424069,37.6365304 18.6556614,35.3270325 21.4989873,35.3270325 C24.3423132,35.3270325 26.6555677,37.6365304 26.6555677,40.4755691 C26.6555677,43.3146079 24.3423132,45.6241057 21.4989873,45.6241057 Z M63.3863504,45.6241057 C60.5430245,45.6241057 58.22977,43.3146079 58.22977,40.4755691 C58.22977,37.6365304 60.5430245,35.3270325 63.3863504,35.3270325 C66.2296762,35.3270325 68.5429307,37.6365304 68.5429307,40.4755691 C68.5429307,43.3146079 66.2296762,45.6241057 63.3863504,45.6241057 Z M73.6202454,30.4160705 L72.2715396,30.4160705 C71.5278663,30.4160705 70.9228338,29.8119819 70.9228338,29.0694686 L70.9228338,27.7228667 L73.6200969,27.7228667 L73.6200969,30.4160705 L73.6202454,30.4160705 Z" id="Shape"></path>
                    <path d="M21.5,38 C20.1214389,38 19,39.1214389 19,40.5 C19,41.8785611 20.1214389,43 21.5,43 C22.8785611,43 24,41.8785611 24,40.5 C24,39.1214389 22.8785611,38 21.5,38 Z" id="Path"></path>
                    <path d="M63.5,38 C62.1214389,38 61,39.1214389 61,40.5 C61,41.8785611 62.1214389,43 63.5,43 C64.8785611,43 66,41.8785611 66,40.5 C66,39.1214389 64.8785611,38 63.5,38 Z" id="Path"></path>
                    <path d="M48.8188582,33 L31.1811418,33 C30.5289134,33 30,33.4476737 30,34 C30,34.5523263 30.5287661,35 31.1811418,35 L48.8188582,35 C49.4710866,35 50,34.5523263 50,34 C50,33.4476737 49.4712339,33 48.8188582,33 Z" id="Path"></path>
                    <path d="M18.8513165,28 L4.1486835,28 C3.51437867,28 3,28.4476737 3,29 C3,29.5523263 3.51423539,30 4.1486835,30 L18.8513165,30 C19.4856213,30 20,29.5523263 20,29 C20,28.4476737 19.4856213,28 18.8513165,28 Z" id="Path"></path>
                    <path d="M40.6541586,12.3281511 C40.1930121,11.890593 39.4450119,11.890593 38.9838654,12.3282909 L28.4803336,22.2944094 L23.0162635,17.1098358 C22.5549697,16.6721379 21.8071168,16.6721379 21.3459704,17.1098358 C20.8846765,17.5475336 20.8846765,18.2569928 21.3459704,18.6946906 L27.6452607,24.6717616 C27.8758339,24.8906804 28.1781574,25 28.4803336,25 C28.7825098,25 29.0849806,24.8906804 29.3154065,24.6717616 L40.6540112,13.9131457 C41.115305,13.4753081 41.115305,12.7658489 40.6541586,12.3281511 Z" id="Path"></path>
                </g>
            </g>
        </g>
    </g>
</svg>