<?xml version="1.0" encoding="UTF-8"?>
<svg width="9px" height="9px" viewBox="0 0 9 9" version="1.1" xmlns="http://www.w3.org/2000/svg" xmlns:xlink="http://www.w3.org/1999/xlink">
    <!-- Generator: Sketch 57.1 (83088) - https://sketch.com -->
    <title>748122</title>
    <desc>Created with Sketch.</desc>
    <g id="Page-1" stroke="none" stroke-width="1" fill="none" fill-rule="evenodd">
        <g id="Desktop-(close)" transform="translate(-1308.000000, -675.000000)" fill="#FFFFFF" fill-rule="nonzero">
            <g id="Group-2" transform="translate(1078.000000, 663.000000)">
                <g id="748122" transform="translate(234.500000, 16.500000) scale(-1, 1) translate(-234.500000, -16.500000) translate(230.000000, 12.000000)">
                    <path d="M4.9972046,4.50001978 L8.89702325,0.600174023 C9.03432558,0.462871356 9.03432558,0.24026209 8.89702325,0.102977 C8.75972092,-0.0343080887 8.5371122,-0.0343256668 8.39982744,0.102977 L4.5,4.00282275 L0.600172558,0.102977 C0.462870226,-0.0343256668 0.240261503,-0.0343256668 0.102976749,0.102977 C-0.034308005,0.240279668 -0.034325583,0.462888934 0.102976749,0.600174023 L4.0027954,4.5 L0.102976749,8.39984795 C-0.034325583,8.53715062 -0.034325583,8.75975988 0.102976749,8.89704497 C0.171619126,8.96568752 0.261601284,9 0.351583443,9 C0.441565601,9 0.531530181,8.96568752 0.600190136,8.89704497 L4.5,4.9972168 L8.39980986,8.89704497 C8.46845224,8.96568752 8.5584344,9 8.64841656,9 C8.73839872,9 8.8283633,8.96568752 8.89702325,8.89704497 C9.03432558,8.7597423 9.03432558,8.53713304 8.89702325,8.39984795 L4.9972046,4.50001978 Z" id="Path"></path>
                </g>
            </g>
        </g>
    </g>
</svg>