<?xml version="1.0" encoding="UTF-8" standalone="no"?>
<!DOCTYPE svg PUBLIC "-//W3C//DTD SVG 1.1//EN"
 "http://www.w3.org/Graphics/SVG/1.1/DTD/svg11.dtd">
<!-- Generated by graphviz version 2.40.1 (20161225.0304)
 -->
<!-- Title: dependencies Pages: 1 -->
<svg width="2183pt" height="284pt"
 viewBox="0.00 0.00 2183.00 284.00" xmlns="http://www.w3.org/2000/svg" xmlns:xlink="http://www.w3.org/1999/xlink">
<g id="graph0" class="graph" transform="scale(1 1) rotate(0) translate(4 280)">
<title>dependencies</title>
<polygon fill="#ffffff" stroke="transparent" points="-4,4 -4,-280 2179,-280 2179,4 -4,4"/>
<text text-anchor="start" x="1066.5091" y="-42.4" font-family="sans-serif" font-weight="bold" font-size="14.00" fill="#000000">Legend</text>
<polygon fill="#ffffb3" stroke="transparent" points="853.5,-10 853.5,-30 873.5,-30 873.5,-10 853.5,-10"/>
<text text-anchor="start" x="877.129" y="-15.4" font-family="sans-serif" font-size="14.00" fill="#000000"> &#160;Declarations</text>
<polygon fill="#8dd3c7" stroke="transparent" points="966.5,-10 966.5,-30 986.5,-30 986.5,-10 966.5,-10"/>
<text text-anchor="start" x="990.2251" y="-15.4" font-family="sans-serif" font-size="14.00" fill="#000000"> &#160;Module</text>
<polygon fill="#80b1d3" stroke="transparent" points="1052.5,-10 1052.5,-30 1072.5,-30 1072.5,-10 1052.5,-10"/>
<text text-anchor="start" x="1076.2812" y="-15.4" font-family="sans-serif" font-size="14.00" fill="#000000"> &#160;Bootstrap</text>
<polygon fill="#fdb462" stroke="transparent" points="1149.5,-10 1149.5,-30 1169.5,-30 1169.5,-10 1149.5,-10"/>
<text text-anchor="start" x="1173.1732" y="-15.4" font-family="sans-serif" font-size="14.00" fill="#000000"> &#160;Providers</text>
<polygon fill="#fb8072" stroke="transparent" points="1245.5,-10 1245.5,-30 1265.5,-30 1265.5,-10 1245.5,-10"/>
<text text-anchor="start" x="1269.2258" y="-15.4" font-family="sans-serif" font-size="14.00" fill="#000000"> &#160;Exports</text>
<g id="clust1" class="cluster">
<title>cluster_AppModule</title>
<polygon fill="none" stroke="#000000" stroke-dasharray="1,5" points="8,-70 8,-268 2167,-268 2167,-70 8,-70"/>
</g>
<g id="clust2" class="cluster">
<title>cluster_AppModule_declarations</title>
<polygon fill="none" stroke="#000000" points="612,-78 612,-130 2159,-130 2159,-78 612,-78"/>
</g>
<g id="clust13" class="cluster">
<title>cluster_AppModule_imports</title>
<polygon fill="none" stroke="#000000" points="460,-78 460,-130 604,-130 604,-78 460,-78"/>
</g>
<g id="clust15" class="cluster">
<title>cluster_AppModule_bootstrap</title>
<polygon fill="none" stroke="#000000" points="1034,-208 1034,-260 1158,-260 1158,-208 1034,-208"/>
</g>
<g id="clust16" class="cluster">
<title>cluster_AppModule_providers</title>
<polygon fill="none" stroke="#000000" points="16,-78 16,-130 452,-130 452,-78 16,-78"/>
</g>
<!-- AppComponent -->
<g id="node1" class="node">
<title>AppComponent</title>
<polygon fill="#ffffb3" stroke="#000000" points="2150.9399,-122 2045.0601,-122 2045.0601,-86 2150.9399,-86 2150.9399,-122"/>
<text text-anchor="middle" x="2098" y="-99.8" font-family="Times,serif" font-size="14.00" fill="#000000">AppComponent</text>
</g>
<!-- AppModule -->
<g id="node11" class="node">
<title>AppModule</title>
<polygon fill="#8dd3c7" stroke="#000000" points="1137.6571,-187 1134.6571,-191 1113.6571,-191 1110.6571,-187 1054.3429,-187 1054.3429,-151 1137.6571,-151 1137.6571,-187"/>
<text text-anchor="middle" x="1096" y="-164.8" font-family="Times,serif" font-size="14.00" fill="#000000">AppModule</text>
</g>
<!-- AppComponent&#45;&gt;AppModule -->
<g id="edge1" class="edge">
<title>AppComponent&#45;&gt;AppModule</title>
<path fill="none" stroke="#000000" d="M2098,-122.0908C2098,-145.1328 2098,-182 2098,-182 2098,-182 1147.779,-182 1147.779,-182"/>
<polygon fill="#000000" stroke="#000000" points="1147.779,-178.5001 1137.779,-182 1147.779,-185.5001 1147.779,-178.5001"/>
</g>
<!-- MenuListItemComponent -->
<g id="node2" class="node">
<title>MenuListItemComponent</title>
<polygon fill="#ffffb3" stroke="#000000" points="2027.927,-122 1866.073,-122 1866.073,-86 2027.927,-86 2027.927,-122"/>
<text text-anchor="middle" x="1947" y="-99.8" font-family="Times,serif" font-size="14.00" fill="#000000">MenuListItemComponent</text>
</g>
<!-- MenuListItemComponent&#45;&gt;AppModule -->
<g id="edge2" class="edge">
<title>MenuListItemComponent&#45;&gt;AppModule</title>
<path fill="none" stroke="#000000" d="M1947,-122.0449C1947,-143.6623 1947,-177 1947,-177 1947,-177 1147.911,-177 1147.911,-177"/>
<polygon fill="#000000" stroke="#000000" points="1147.911,-173.5001 1137.911,-177 1147.9109,-180.5001 1147.911,-173.5001"/>
</g>
<!-- TopNavComponent -->
<g id="node3" class="node">
<title>TopNavComponent</title>
<polygon fill="#ffffb3" stroke="#000000" points="1848.7064,-122 1721.2936,-122 1721.2936,-86 1848.7064,-86 1848.7064,-122"/>
<text text-anchor="middle" x="1785" y="-99.8" font-family="Times,serif" font-size="14.00" fill="#000000">TopNavComponent</text>
</g>
<!-- TopNavComponent&#45;&gt;AppModule -->
<g id="edge3" class="edge">
<title>TopNavComponent&#45;&gt;AppModule</title>
<path fill="none" stroke="#000000" d="M1785,-122.2228C1785,-142.3652 1785,-172 1785,-172 1785,-172 1147.8053,-172 1147.8053,-172"/>
<polygon fill="#000000" stroke="#000000" points="1147.8053,-168.5001 1137.8053,-172 1147.8053,-175.5001 1147.8053,-168.5001"/>
</g>
<!-- ShipmentListComponent -->
<g id="node4" class="node">
<title>ShipmentListComponent</title>
<polygon fill="#ffffb3" stroke="#000000" points="1703.28,-122 1546.72,-122 1546.72,-86 1703.28,-86 1703.28,-122"/>
<text text-anchor="middle" x="1625" y="-99.8" font-family="Times,serif" font-size="14.00" fill="#000000">ShipmentListComponent</text>
</g>
<!-- ShipmentListComponent&#45;&gt;AppModule -->
<g id="edge4" class="edge">
<title>ShipmentListComponent&#45;&gt;AppModule</title>
<path fill="none" stroke="#000000" d="M1625,-122.2222C1625,-140.8285 1625,-167 1625,-167 1625,-167 1147.9519,-167 1147.9519,-167"/>
<polygon fill="#000000" stroke="#000000" points="1147.9519,-163.5001 1137.9519,-167 1147.9519,-170.5001 1147.9519,-163.5001"/>
</g>
<!-- QuotesComponent -->
<g id="node5" class="node">
<title>QuotesComponent</title>
<polygon fill="#ffffb3" stroke="#000000" points="1528.4888,-122 1407.5112,-122 1407.5112,-86 1528.4888,-86 1528.4888,-122"/>
<text text-anchor="middle" x="1468" y="-99.8" font-family="Times,serif" font-size="14.00" fill="#000000">QuotesComponent</text>
</g>
<!-- QuotesComponent&#45;&gt;AppModule -->
<g id="edge5" class="edge">
<title>QuotesComponent&#45;&gt;AppModule</title>
<path fill="none" stroke="#000000" d="M1468,-122.0336C1468,-139.0597 1468,-162 1468,-162 1468,-162 1147.95,-162 1147.95,-162"/>
<polygon fill="#000000" stroke="#000000" points="1147.95,-158.5001 1137.95,-162 1147.95,-165.5001 1147.95,-158.5001"/>
</g>
<!-- DashboardComponent -->
<g id="node6" class="node">
<title>DashboardComponent</title>
<polygon fill="#ffffb3" stroke="#000000" points="1389.9734,-122 1248.0266,-122 1248.0266,-86 1389.9734,-86 1389.9734,-122"/>
<text text-anchor="middle" x="1319" y="-99.8" font-family="Times,serif" font-size="14.00" fill="#000000">DashboardComponent</text>
</g>
<!-- DashboardComponent&#45;&gt;AppModule -->
<g id="edge6" class="edge">
<title>DashboardComponent&#45;&gt;AppModule</title>
<path fill="none" stroke="#000000" d="M1319,-122.2396C1319,-137.5706 1319,-157 1319,-157 1319,-157 1147.683,-157 1147.683,-157"/>
<polygon fill="#000000" stroke="#000000" points="1147.683,-153.5001 1137.683,-157 1147.683,-160.5001 1147.683,-153.5001"/>
</g>
<!-- InvoiceComponent -->
<g id="node7" class="node">
<title>InvoiceComponent</title>
<polygon fill="#ffffb3" stroke="#000000" points="1229.8132,-122 1106.1868,-122 1106.1868,-86 1229.8132,-86 1229.8132,-122"/>
<text text-anchor="middle" x="1168" y="-99.8" font-family="Times,serif" font-size="14.00" fill="#000000">InvoiceComponent</text>
</g>
<!-- InvoiceComponent&#45;&gt;AppModule -->
<g id="edge7" class="edge">
<title>InvoiceComponent&#45;&gt;AppModule</title>
<path fill="none" stroke="#000000" d="M1122.0859,-122.1061C1122.0859,-122.1061 1122.0859,-140.991 1122.0859,-140.991"/>
<polygon fill="#000000" stroke="#000000" points="1118.586,-140.9909 1122.0859,-150.991 1125.586,-140.991 1118.586,-140.9909"/>
</g>
<!-- SettingsComponent -->
<g id="node8" class="node">
<title>SettingsComponent</title>
<polygon fill="#ffffb3" stroke="#000000" points="1088.4468,-122 961.5532,-122 961.5532,-86 1088.4468,-86 1088.4468,-122"/>
<text text-anchor="middle" x="1025" y="-99.8" font-family="Times,serif" font-size="14.00" fill="#000000">SettingsComponent</text>
</g>
<!-- SettingsComponent&#45;&gt;AppModule -->
<g id="edge8" class="edge">
<title>SettingsComponent&#45;&gt;AppModule</title>
<path fill="none" stroke="#000000" d="M1071.1974,-122.1061C1071.1974,-122.1061 1071.1974,-140.991 1071.1974,-140.991"/>
<polygon fill="#000000" stroke="#000000" points="1067.6975,-140.9909 1071.1974,-150.991 1074.6975,-140.991 1067.6975,-140.9909"/>
</g>
<!-- NofoundpageComponent -->
<g id="node9" class="node">
<title>NofoundpageComponent</title>
<polygon fill="#ffffb3" stroke="#000000" points="943.5295,-122 786.4705,-122 786.4705,-86 943.5295,-86 943.5295,-122"/>
<text text-anchor="middle" x="865" y="-99.8" font-family="Times,serif" font-size="14.00" fill="#000000">NofoundpageComponent</text>
</g>
<!-- NofoundpageComponent&#45;&gt;AppModule -->
<g id="edge9" class="edge">
<title>NofoundpageComponent&#45;&gt;AppModule</title>
<path fill="none" stroke="#000000" d="M865,-122.2396C865,-137.5706 865,-157 865,-157 865,-157 1044.1676,-157 1044.1676,-157"/>
<polygon fill="#000000" stroke="#000000" points="1044.1677,-160.5001 1054.1676,-157 1044.1676,-153.5001 1044.1677,-160.5001"/>
</g>
<!-- ViewModalComponent -->
<g id="node10" class="node">
<title>ViewModalComponent</title>
<polygon fill="#ffffb3" stroke="#000000" points="768.2007,-122 619.7993,-122 619.7993,-86 768.2007,-86 768.2007,-122"/>
<text text-anchor="middle" x="694" y="-99.8" font-family="Times,serif" font-size="14.00" fill="#000000">ViewModalComponent</text>
</g>
<!-- ViewModalComponent&#45;&gt;AppModule -->
<g id="edge10" class="edge">
<title>ViewModalComponent&#45;&gt;AppModule</title>
<path fill="none" stroke="#000000" d="M694,-122.0336C694,-139.0597 694,-162 694,-162 694,-162 1044.1166,-162 1044.1166,-162"/>
<polygon fill="#000000" stroke="#000000" points="1044.1166,-165.5001 1054.1166,-162 1044.1166,-158.5001 1044.1166,-165.5001"/>
</g>
<!-- AppComponent  -->
<g id="node13" class="node">
<title>AppComponent </title>
<polygon fill="#80b1d3" stroke="#000000" points="1150.439,-252 1041.561,-252 1041.561,-216 1150.439,-216 1150.439,-252"/>
<text text-anchor="middle" x="1096" y="-229.8" font-family="Times,serif" font-size="14.00" fill="#000000">AppComponent </text>
</g>
<!-- AppModule&#45;&gt;AppComponent  -->
<g id="edge12" class="edge">
<title>AppModule&#45;&gt;AppComponent </title>
<path fill="none" stroke="#000000" stroke-dasharray="1,5" d="M1096,-187.1061C1096,-187.1061 1096,-205.991 1096,-205.991"/>
<polygon fill="#000000" stroke="#000000" points="1092.5001,-205.9909 1096,-215.991 1099.5001,-205.991 1092.5001,-205.9909"/>
</g>
<!-- AppRoutingModule -->
<g id="node12" class="node">
<title>AppRoutingModule</title>
<polygon fill="#8dd3c7" stroke="#000000" points="596.2744,-122 593.2744,-126 572.2744,-126 569.2744,-122 467.7256,-122 467.7256,-86 596.2744,-86 596.2744,-122"/>
<text text-anchor="middle" x="532" y="-99.8" font-family="Times,serif" font-size="14.00" fill="#000000">AppRoutingModule</text>
</g>
<!-- AppRoutingModule&#45;&gt;AppModule -->
<g id="edge11" class="edge">
<title>AppRoutingModule&#45;&gt;AppModule</title>
<path fill="none" stroke="#000000" d="M532,-122.2222C532,-140.8285 532,-167 532,-167 532,-167 1044.0691,-167 1044.0691,-167"/>
<polygon fill="#000000" stroke="#000000" points="1044.0691,-170.5001 1054.0691,-167 1044.0691,-163.5001 1044.0691,-170.5001"/>
</g>
<!-- NavService -->
<g id="node14" class="node">
<title>NavService</title>
<ellipse fill="#fdb462" stroke="#000000" cx="388" cy="-104" rx="56.157" ry="18"/>
<text text-anchor="middle" x="388" y="-99.8" font-family="Times,serif" font-size="14.00" fill="#000000">NavService</text>
</g>
<!-- NavService&#45;&gt;AppModule -->
<g id="edge13" class="edge">
<title>NavService&#45;&gt;AppModule</title>
<path fill="none" stroke="#000000" d="M388,-122.2228C388,-142.3652 388,-172 388,-172 388,-172 1044.0935,-172 1044.0935,-172"/>
<polygon fill="#000000" stroke="#000000" points="1044.0935,-175.5001 1054.0935,-172 1044.0934,-168.5001 1044.0935,-175.5001"/>
</g>
<!-- ShipmentsService -->
<g id="node15" class="node">
<title>ShipmentsService</title>
<ellipse fill="#fdb462" stroke="#000000" cx="233" cy="-104" rx="80.5354" ry="18"/>
<text text-anchor="middle" x="233" y="-99.8" font-family="Times,serif" font-size="14.00" fill="#000000">ShipmentsService</text>
</g>
<!-- ShipmentsService&#45;&gt;AppModule -->
<g id="edge14" class="edge">
<title>ShipmentsService&#45;&gt;AppModule</title>
<path fill="none" stroke="#000000" d="M233,-122.0449C233,-143.6623 233,-177 233,-177 233,-177 1044.0841,-177 1044.0841,-177"/>
<polygon fill="#000000" stroke="#000000" points="1044.0841,-180.5001 1054.0841,-177 1044.084,-173.5001 1044.0841,-180.5001"/>
</g>
<!-- TagService -->
<g id="node16" class="node">
<title>TagService</title>
<ellipse fill="#fdb462" stroke="#000000" cx="79" cy="-104" rx="55.013" ry="18"/>
<text text-anchor="middle" x="79" y="-99.8" font-family="Times,serif" font-size="14.00" fill="#000000">TagService</text>
</g>
<!-- TagService&#45;&gt;AppModule -->
<g id="edge15" class="edge">
<title>TagService&#45;&gt;AppModule</title>
<path fill="none" stroke="#000000" d="M79,-122.0908C79,-145.1328 79,-182 79,-182 79,-182 1044.2364,-182 1044.2364,-182"/>
<polygon fill="#000000" stroke="#000000" points="1044.2364,-185.5001 1054.2364,-182 1044.2363,-178.5001 1044.2364,-185.5001"/>
</g>
</g>
</svg>
